<svg width="440" height="101" viewBox="0 0 440 101" fill="none" xmlns="http://www.w3.org/2000/svg">
<circle cx="389.5" cy="50.5" r="50.5" fill="#4B99F1"/>
<path d="M410.602 64.7149C410.602 65.4949 410.428 66.2966 410.06 67.0766C409.692 67.8566 409.215 68.5933 408.587 69.2866C407.525 70.4566 406.355 71.3016 405.033 71.8433C403.733 72.3849 402.325 72.6666 400.808 72.6666C398.598 72.6666 396.237 72.1466 393.745 71.0849C391.253 70.0233 388.762 68.5933 386.292 66.7949C383.8 64.9749 381.438 62.9599 379.185 60.7283C376.953 58.4749 374.938 56.1133 373.14 53.6433C371.363 51.1733 369.933 48.7033 368.893 46.2549C367.853 43.7849 367.333 41.4233 367.333 39.1699C367.333 37.6966 367.593 36.2883 368.113 34.9883C368.633 33.6666 369.457 32.4533 370.605 31.3699C371.992 30.0049 373.508 29.3333 375.112 29.3333C375.718 29.3333 376.325 29.4633 376.867 29.7233C377.43 29.9833 377.928 30.3733 378.318 30.9366L383.345 38.0216C383.735 38.5633 384.017 39.0616 384.212 39.5383C384.407 39.9933 384.515 40.4483 384.515 40.8599C384.515 41.3799 384.363 41.8999 384.06 42.3983C383.778 42.8966 383.367 43.4166 382.847 43.9366L381.2 45.6483C380.962 45.8866 380.853 46.1683 380.853 46.5149C380.853 46.6883 380.875 46.8399 380.918 47.0133C380.983 47.1866 381.048 47.3166 381.092 47.4466C381.482 48.1616 382.153 49.0933 383.107 50.2199C384.082 51.3466 385.122 52.4949 386.248 53.6433C387.418 54.7916 388.545 55.8533 389.693 56.8283C390.82 57.7816 391.752 58.4316 392.488 58.8216C392.597 58.8649 392.727 58.9299 392.878 58.9949C393.052 59.0599 393.225 59.0816 393.42 59.0816C393.788 59.0816 394.07 58.9516 394.308 58.7133L395.955 57.0883C396.497 56.5466 397.017 56.1349 397.515 55.8749C398.013 55.5716 398.512 55.4199 399.053 55.4199C399.465 55.4199 399.898 55.5066 400.375 55.7016C400.852 55.8966 401.35 56.1783 401.892 56.5466L409.063 61.6383C409.627 62.0283 410.017 62.4833 410.255 63.0249C410.472 63.5666 410.602 64.1083 410.602 64.7149Z" stroke="white" stroke-width="3" stroke-miterlimit="10"/>
<path d="M403.083 44.4998C403.083 43.1998 402.065 41.2065 400.548 39.5815C399.162 38.0865 397.32 36.9165 395.5 36.9165" stroke="white" stroke-width="3" stroke-linecap="round" stroke-linejoin="round"/>
<path d="M410.667 44.4999C410.667 36.1149 403.885 29.3333 395.5 29.3333" stroke="white" stroke-width="3" stroke-linecap="round" stroke-linejoin="round"/>
<path opacity="0.5" d="M0 16C0 13.2386 2.23858 11 5 11H307C309.761 11 312 13.2386 312 16V39L328 50.5L312 61.5V84C312 86.7614 309.761 89 307 89H5.00001C2.23858 89 0 86.7614 0 84V16Z" fill="#131313"/>
<path d="M32.6982 44.848V48.826H31.4562V46H20.4582L20.4402 48.826H19.1982L19.2162 44.848H19.8462C20.6742 44.8 21.2502 44.146 21.5742 42.886C21.8982 41.614 22.0962 39.814 22.1682 37.486L22.3122 33.4H30.8082V44.848H32.6982ZM23.3562 37.612C23.2962 39.532 23.1462 41.116 22.9062 42.364C22.6782 43.6 22.2882 44.428 21.7362 44.848H29.4942V34.552H23.4642L23.3562 37.612Z" fill="white"/>
<path d="M38.3673 36.46C39.6033 36.46 40.5513 36.772 41.2113 37.396C41.8713 38.008 42.2013 38.92 42.2013 40.132V46H40.9773V44.524C40.6893 45.016 40.2633 45.4 39.6993 45.676C39.1473 45.952 38.4873 46.09 37.7193 46.09C36.6633 46.09 35.8233 45.838 35.1993 45.334C34.5753 44.83 34.2633 44.164 34.2633 43.336C34.2633 42.532 34.5513 41.884 35.1273 41.392C35.7153 40.9 36.6453 40.654 37.9173 40.654H40.9233V40.078C40.9233 39.262 40.6953 38.644 40.2393 38.224C39.7833 37.792 39.1173 37.576 38.2413 37.576C37.6413 37.576 37.0653 37.678 36.5133 37.882C35.9613 38.074 35.4873 38.344 35.0913 38.692L34.5153 37.738C34.9953 37.33 35.5713 37.018 36.2433 36.802C36.9153 36.574 37.6233 36.46 38.3673 36.46ZM37.9173 45.082C38.6373 45.082 39.2553 44.92 39.7713 44.596C40.2873 44.26 40.6713 43.78 40.9233 43.156V41.608H37.9533C36.3333 41.608 35.5233 42.172 35.5233 43.3C35.5233 43.852 35.7333 44.29 36.1533 44.614C36.5733 44.926 37.1613 45.082 37.9173 45.082Z" fill="white"/>
<path d="M51.6334 41.104C52.9174 41.404 53.5594 42.178 53.5594 43.426C53.5594 44.254 53.2534 44.89 52.6414 45.334C52.0294 45.778 51.1174 46 49.9054 46H45.6034V36.532H49.7794C50.8594 36.532 51.7054 36.742 52.3174 37.162C52.9294 37.582 53.2354 38.182 53.2354 38.962C53.2354 39.478 53.0914 39.922 52.8034 40.294C52.5274 40.654 52.1374 40.924 51.6334 41.104ZM46.8454 40.744H49.6894C50.4214 40.744 50.9794 40.606 51.3634 40.33C51.7594 40.054 51.9574 39.652 51.9574 39.124C51.9574 38.596 51.7594 38.2 51.3634 37.936C50.9794 37.672 50.4214 37.54 49.6894 37.54H46.8454V40.744ZM49.8514 44.992C50.6674 44.992 51.2794 44.86 51.6874 44.596C52.0954 44.332 52.2994 43.918 52.2994 43.354C52.2994 42.79 52.1134 42.376 51.7414 42.112C51.3694 41.836 50.7814 41.698 49.9774 41.698H46.8454V44.992H49.8514Z" fill="white"/>
<path d="M59.8126 36.46C61.0486 36.46 61.9966 36.772 62.6566 37.396C63.3166 38.008 63.6466 38.92 63.6466 40.132V46H62.4226V44.524C62.1346 45.016 61.7086 45.4 61.1446 45.676C60.5926 45.952 59.9326 46.09 59.1646 46.09C58.1086 46.09 57.2686 45.838 56.6446 45.334C56.0206 44.83 55.7086 44.164 55.7086 43.336C55.7086 42.532 55.9966 41.884 56.5726 41.392C57.1606 40.9 58.0906 40.654 59.3626 40.654H62.3686V40.078C62.3686 39.262 62.1406 38.644 61.6846 38.224C61.2286 37.792 60.5626 37.576 59.6866 37.576C59.0866 37.576 58.5106 37.678 57.9586 37.882C57.4066 38.074 56.9326 38.344 56.5366 38.692L55.9606 37.738C56.4406 37.33 57.0166 37.018 57.6886 36.802C58.3606 36.574 59.0686 36.46 59.8126 36.46ZM59.3626 45.082C60.0826 45.082 60.7006 44.92 61.2166 44.596C61.7326 44.26 62.1166 43.78 62.3686 43.156V41.608H59.3986C57.7786 41.608 56.9686 42.172 56.9686 43.3C56.9686 43.852 57.1786 44.29 57.5986 44.614C58.0186 44.926 58.6066 45.082 59.3626 45.082Z" fill="white"/>
<path d="M67.0487 36.532H68.3267V44.056L74.6447 36.532H75.7787V46H74.5007V38.476L68.2007 46H67.0487V36.532ZM71.3507 35.164C70.5347 35.164 69.8867 34.96 69.4067 34.552C68.9267 34.144 68.6807 33.568 68.6687 32.824H69.5867C69.5987 33.292 69.7667 33.67 70.0907 33.958C70.4147 34.234 70.8347 34.372 71.3507 34.372C71.8667 34.372 72.2867 34.234 72.6107 33.958C72.9467 33.67 73.1207 33.292 73.1327 32.824H74.0507C74.0387 33.568 73.7867 34.144 73.2947 34.552C72.8147 34.96 72.1667 35.164 71.3507 35.164Z" fill="white"/>
<path d="M86.1013 37.666H82.5193V46H81.2413V37.666H77.6593V36.532H86.1013V37.666Z" fill="white"/>
<path d="M95.7896 41.662H87.8697C87.9417 42.646 88.3196 43.444 89.0036 44.056C89.6876 44.656 90.5516 44.956 91.5956 44.956C92.1836 44.956 92.7237 44.854 93.2157 44.65C93.7077 44.434 94.1337 44.122 94.4937 43.714L95.2137 44.542C94.7937 45.046 94.2657 45.43 93.6297 45.694C93.0057 45.958 92.3157 46.09 91.5597 46.09C90.5877 46.09 89.7237 45.886 88.9677 45.478C88.2237 45.058 87.6416 44.482 87.2216 43.75C86.8016 43.018 86.5917 42.19 86.5917 41.266C86.5917 40.342 86.7897 39.514 87.1857 38.782C87.5937 38.05 88.1457 37.48 88.8417 37.072C89.5497 36.664 90.3417 36.46 91.2177 36.46C92.0937 36.46 92.8797 36.664 93.5757 37.072C94.2717 37.48 94.8177 38.05 95.2137 38.782C95.6097 39.502 95.8076 40.33 95.8076 41.266L95.7896 41.662ZM91.2177 37.558C90.3057 37.558 89.5377 37.852 88.9137 38.44C88.3017 39.016 87.9537 39.772 87.8697 40.708H94.5836C94.4996 39.772 94.1457 39.016 93.5217 38.44C92.9097 37.852 92.1417 37.558 91.2177 37.558Z" fill="white"/>
<path d="M111.088 36.532V46H109.81V37.666H105.274L105.148 40.006C105.052 41.974 104.824 43.486 104.464 44.542C104.104 45.598 103.462 46.126 102.538 46.126C102.286 46.126 101.98 46.078 101.62 45.982L101.71 44.884C101.926 44.932 102.076 44.956 102.16 44.956C102.652 44.956 103.024 44.728 103.276 44.272C103.528 43.816 103.696 43.252 103.78 42.58C103.864 41.908 103.936 41.02 103.996 39.916L104.158 36.532H111.088Z" fill="white"/>
<path d="M114.721 36.532H115.999V46H114.721V36.532ZM115.369 34.462C115.105 34.462 114.883 34.372 114.703 34.192C114.523 34.012 114.433 33.796 114.433 33.544C114.433 33.304 114.523 33.094 114.703 32.914C114.883 32.734 115.105 32.644 115.369 32.644C115.633 32.644 115.855 32.734 116.035 32.914C116.215 33.082 116.305 33.286 116.305 33.526C116.305 33.79 116.215 34.012 116.035 34.192C115.855 34.372 115.633 34.462 115.369 34.462Z" fill="white"/>
<path d="M123.08 41.788H120.92V46H119.642V36.532H120.92V40.69H123.098L126.428 36.532H127.814L124.088 41.122L128.084 46H126.572L123.08 41.788Z" fill="white"/>
<path d="M133.184 36.46C134.42 36.46 135.368 36.772 136.028 37.396C136.688 38.008 137.018 38.92 137.018 40.132V46H135.794V44.524C135.506 45.016 135.08 45.4 134.516 45.676C133.964 45.952 133.304 46.09 132.536 46.09C131.48 46.09 130.64 45.838 130.016 45.334C129.392 44.83 129.08 44.164 129.08 43.336C129.08 42.532 129.368 41.884 129.944 41.392C130.532 40.9 131.462 40.654 132.734 40.654H135.74V40.078C135.74 39.262 135.512 38.644 135.056 38.224C134.6 37.792 133.934 37.576 133.058 37.576C132.458 37.576 131.882 37.678 131.33 37.882C130.778 38.074 130.304 38.344 129.908 38.692L129.332 37.738C129.812 37.33 130.388 37.018 131.06 36.802C131.732 36.574 132.44 36.46 133.184 36.46ZM132.734 45.082C133.454 45.082 134.072 44.92 134.588 44.596C135.104 44.26 135.488 43.78 135.74 43.156V41.608H132.77C131.15 41.608 130.34 42.172 130.34 43.3C130.34 43.852 130.55 44.29 130.97 44.614C131.39 44.926 131.978 45.082 132.734 45.082Z" fill="white"/>
<path d="M145.298 36.46C146.186 36.46 146.99 36.664 147.71 37.072C148.43 37.468 148.994 38.032 149.402 38.764C149.81 39.496 150.014 40.33 150.014 41.266C150.014 42.214 149.81 43.054 149.402 43.786C148.994 44.518 148.43 45.088 147.71 45.496C147.002 45.892 146.198 46.09 145.298 46.09C144.53 46.09 143.834 45.934 143.21 45.622C142.598 45.298 142.094 44.83 141.698 44.218V49.492H140.42V36.532H141.644V38.404C142.028 37.78 142.532 37.3 143.156 36.964C143.792 36.628 144.506 36.46 145.298 36.46ZM145.208 44.956C145.868 44.956 146.468 44.806 147.008 44.506C147.548 44.194 147.968 43.756 148.268 43.192C148.58 42.628 148.736 41.986 148.736 41.266C148.736 40.546 148.58 39.91 148.268 39.358C147.968 38.794 147.548 38.356 147.008 38.044C146.468 37.732 145.868 37.576 145.208 37.576C144.536 37.576 143.93 37.732 143.39 38.044C142.862 38.356 142.442 38.794 142.13 39.358C141.83 39.91 141.68 40.546 141.68 41.266C141.68 41.986 141.83 42.628 142.13 43.192C142.442 43.756 142.862 44.194 143.39 44.506C143.93 44.806 144.536 44.956 145.208 44.956Z" fill="white"/>
<path d="M165.967 36.532V46H164.689V37.666H158.749V46H157.471V36.532H165.967Z" fill="white"/>
<path d="M174.477 36.46C175.365 36.46 176.169 36.664 176.889 37.072C177.609 37.468 178.173 38.032 178.581 38.764C178.989 39.496 179.193 40.33 179.193 41.266C179.193 42.214 178.989 43.054 178.581 43.786C178.173 44.518 177.609 45.088 176.889 45.496C176.181 45.892 175.377 46.09 174.477 46.09C173.709 46.09 173.013 45.934 172.389 45.622C171.777 45.298 171.273 44.83 170.877 44.218V49.492H169.599V36.532H170.824V38.404C171.208 37.78 171.711 37.3 172.335 36.964C172.971 36.628 173.685 36.46 174.477 36.46ZM174.387 44.956C175.047 44.956 175.648 44.806 176.188 44.506C176.728 44.194 177.147 43.756 177.447 43.192C177.759 42.628 177.915 41.986 177.915 41.266C177.915 40.546 177.759 39.91 177.447 39.358C177.147 38.794 176.728 38.356 176.188 38.044C175.648 37.732 175.047 37.576 174.387 37.576C173.715 37.576 173.109 37.732 172.569 38.044C172.041 38.356 171.621 38.794 171.309 39.358C171.009 39.91 170.859 40.546 170.859 41.266C170.859 41.986 171.009 42.628 171.309 43.192C171.621 43.756 172.041 44.194 172.569 44.506C173.109 44.806 173.715 44.956 174.387 44.956Z" fill="white"/>
<path d="M185.845 46.09C184.933 46.09 184.111 45.886 183.379 45.478C182.647 45.058 182.071 44.482 181.651 43.75C181.231 43.018 181.021 42.19 181.021 41.266C181.021 40.342 181.231 39.514 181.651 38.782C182.071 38.05 182.647 37.48 183.379 37.072C184.111 36.664 184.933 36.46 185.845 36.46C186.757 36.46 187.579 36.664 188.311 37.072C189.043 37.48 189.613 38.05 190.021 38.782C190.441 39.514 190.651 40.342 190.651 41.266C190.651 42.19 190.441 43.018 190.021 43.75C189.613 44.482 189.043 45.058 188.311 45.478C187.579 45.886 186.757 46.09 185.845 46.09ZM185.845 44.956C186.517 44.956 187.117 44.806 187.645 44.506C188.185 44.194 188.605 43.756 188.905 43.192C189.205 42.628 189.355 41.986 189.355 41.266C189.355 40.546 189.205 39.904 188.905 39.34C188.605 38.776 188.185 38.344 187.645 38.044C187.117 37.732 186.517 37.576 185.845 37.576C185.173 37.576 184.567 37.732 184.027 38.044C183.499 38.344 183.079 38.776 182.767 39.34C182.467 39.904 182.317 40.546 182.317 41.266C182.317 41.986 182.467 42.628 182.767 43.192C183.079 43.756 183.499 44.194 184.027 44.506C184.567 44.806 185.173 44.956 185.845 44.956Z" fill="white"/>
<path d="M196.821 41.788H194.661V46H193.383V36.532H194.661V40.69H196.839L200.169 36.532H201.555L197.829 41.122L201.825 46H200.313L196.821 41.788Z" fill="white"/>
<path d="M207.414 46.09C206.502 46.09 205.68 45.886 204.948 45.478C204.216 45.058 203.64 44.482 203.22 43.75C202.8 43.018 202.59 42.19 202.59 41.266C202.59 40.342 202.8 39.514 203.22 38.782C203.64 38.05 204.216 37.48 204.948 37.072C205.68 36.664 206.502 36.46 207.414 36.46C208.326 36.46 209.148 36.664 209.88 37.072C210.612 37.48 211.182 38.05 211.59 38.782C212.01 39.514 212.22 40.342 212.22 41.266C212.22 42.19 212.01 43.018 211.59 43.75C211.182 44.482 210.612 45.058 209.88 45.478C209.148 45.886 208.326 46.09 207.414 46.09ZM207.414 44.956C208.086 44.956 208.686 44.806 209.214 44.506C209.754 44.194 210.174 43.756 210.474 43.192C210.774 42.628 210.924 41.986 210.924 41.266C210.924 40.546 210.774 39.904 210.474 39.34C210.174 38.776 209.754 38.344 209.214 38.044C208.686 37.732 208.086 37.576 207.414 37.576C206.742 37.576 206.136 37.732 205.596 38.044C205.068 38.344 204.648 38.776 204.336 39.34C204.036 39.904 203.886 40.546 203.886 41.266C203.886 41.986 204.036 42.628 204.336 43.192C204.648 43.756 205.068 44.194 205.596 44.506C206.136 44.806 206.742 44.956 207.414 44.956Z" fill="white"/>
<path d="M214.951 36.532H216.229V40.726H222.187V36.532H223.465V46H222.187V41.824H216.229V46H214.951V36.532Z" fill="white"/>
<path d="M231.058 46.09C230.122 46.09 229.282 45.886 228.538 45.478C227.806 45.07 227.23 44.5 226.81 43.768C226.39 43.024 226.18 42.19 226.18 41.266C226.18 40.342 226.39 39.514 226.81 38.782C227.23 38.05 227.806 37.48 228.538 37.072C229.282 36.664 230.122 36.46 231.058 36.46C231.874 36.46 232.6 36.622 233.236 36.946C233.884 37.258 234.394 37.72 234.766 38.332L233.812 38.98C233.5 38.512 233.104 38.164 232.624 37.936C232.144 37.696 231.622 37.576 231.058 37.576C230.374 37.576 229.756 37.732 229.204 38.044C228.664 38.344 228.238 38.776 227.926 39.34C227.626 39.904 227.476 40.546 227.476 41.266C227.476 41.998 227.626 42.646 227.926 43.21C228.238 43.762 228.664 44.194 229.204 44.506C229.756 44.806 230.374 44.956 231.058 44.956C231.622 44.956 232.144 44.842 232.624 44.614C233.104 44.386 233.5 44.038 233.812 43.57L234.766 44.218C234.394 44.83 233.884 45.298 233.236 45.622C232.588 45.934 231.862 46.09 231.058 46.09Z" fill="white"/>
<path d="M245.145 36.532L240.411 47.134C240.027 48.022 239.583 48.652 239.079 49.024C238.575 49.396 237.969 49.582 237.261 49.582C236.805 49.582 236.379 49.51 235.983 49.366C235.587 49.222 235.245 49.006 234.957 48.718L235.551 47.764C236.031 48.244 236.607 48.484 237.279 48.484C237.711 48.484 238.077 48.364 238.377 48.124C238.689 47.884 238.978 47.476 239.242 46.9L239.655 45.982L235.425 36.532H236.757L240.321 44.578L243.885 36.532H245.145Z" fill="white"/>
<path d="M254.455 36.532V46H253.177V37.666H248.641L248.515 40.006C248.419 41.974 248.191 43.486 247.831 44.542C247.471 45.598 246.829 46.126 245.905 46.126C245.653 46.126 245.347 46.078 244.987 45.982L245.077 44.884C245.293 44.932 245.443 44.956 245.527 44.956C246.019 44.956 246.391 44.728 246.643 44.272C246.895 43.816 247.063 43.252 247.147 42.58C247.231 41.908 247.303 41.02 247.363 39.916L247.525 36.532H254.455Z" fill="white"/>
<path d="M262.156 39.88C263.344 39.892 264.244 40.156 264.856 40.672C265.48 41.188 265.792 41.932 265.792 42.904C265.792 43.912 265.456 44.686 264.784 45.226C264.124 45.766 263.164 46.03 261.904 46.018L258.088 46V36.532H259.366V39.844L262.156 39.88ZM261.832 45.046C262.708 45.058 263.368 44.884 263.812 44.524C264.268 44.152 264.496 43.612 264.496 42.904C264.496 42.208 264.274 41.692 263.83 41.356C263.386 41.02 262.72 40.846 261.832 40.834L259.366 40.798V45.01L261.832 45.046Z" fill="white"/>
<path d="M273.941 37.666H270.359V46H269.081V37.666H265.499V36.532H273.941V37.666Z" fill="white"/>
<path d="M283.87 36.532L279.136 47.134C278.752 48.022 278.308 48.652 277.804 49.024C277.3 49.396 276.694 49.582 275.986 49.582C275.53 49.582 275.104 49.51 274.708 49.366C274.312 49.222 273.97 49.006 273.682 48.718L274.276 47.764C274.756 48.244 275.332 48.484 276.004 48.484C276.436 48.484 276.802 48.364 277.102 48.124C277.414 47.884 277.702 47.476 277.966 46.9L278.38 45.982L274.15 36.532H275.482L279.046 44.578L282.61 36.532H283.87Z" fill="white"/>
<path d="M289.684 46.072C288.736 46.072 287.878 45.868 287.11 45.46C286.354 45.04 285.754 44.464 285.31 43.732C284.878 43 284.662 42.178 284.662 41.266C284.662 40.354 284.878 39.532 285.31 38.8C285.754 38.056 286.354 37.474 287.11 37.054C287.878 36.634 288.736 36.424 289.684 36.424C290.476 36.424 291.202 36.55 291.862 36.802C292.522 37.042 293.08 37.396 293.536 37.864L292.78 38.62C291.976 37.864 290.962 37.486 289.738 37.486C289.054 37.486 288.43 37.63 287.866 37.918C287.314 38.206 286.858 38.608 286.498 39.124C286.15 39.64 285.946 40.216 285.886 40.852H290.944V41.824H285.904C286.036 42.772 286.456 43.546 287.164 44.146C287.872 44.734 288.73 45.028 289.738 45.028C290.962 45.028 291.976 44.65 292.78 43.894L293.536 44.632C293.08 45.1 292.522 45.46 291.862 45.712C291.202 45.952 290.476 46.072 289.684 46.072Z" fill="white"/>
<path d="M26.8482 61.104C28.1322 61.404 28.7742 62.178 28.7742 63.426C28.7742 64.254 28.4682 64.89 27.8562 65.334C27.2442 65.778 26.3322 66 25.1202 66H20.8182V56.532H24.9942C26.0742 56.532 26.9202 56.742 27.5322 57.162C28.1442 57.582 28.4502 58.182 28.4502 58.962C28.4502 59.478 28.3062 59.922 28.0182 60.294C27.7422 60.654 27.3522 60.924 26.8482 61.104ZM22.0602 60.744H24.9042C25.6362 60.744 26.1942 60.606 26.5782 60.33C26.9742 60.054 27.1722 59.652 27.1722 59.124C27.1722 58.596 26.9742 58.2 26.5782 57.936C26.1942 57.672 25.6362 57.54 24.9042 57.54H22.0602V60.744ZM25.0662 64.992C25.8822 64.992 26.4942 64.86 26.9022 64.596C27.3102 64.332 27.5142 63.918 27.5142 63.354C27.5142 62.79 27.3282 62.376 26.9562 62.112C26.5842 61.836 25.9962 61.698 25.1922 61.698H22.0602V64.992H25.0662Z" fill="white"/>
<path d="M35.0274 56.46C36.2634 56.46 37.2114 56.772 37.8714 57.396C38.5314 58.008 38.8614 58.92 38.8614 60.132V66H37.6374V64.524C37.3494 65.016 36.9234 65.4 36.3594 65.676C35.8074 65.952 35.1474 66.09 34.3794 66.09C33.3234 66.09 32.4834 65.838 31.8594 65.334C31.2354 64.83 30.9234 64.164 30.9234 63.336C30.9234 62.532 31.2114 61.884 31.7874 61.392C32.3754 60.9 33.3054 60.654 34.5774 60.654H37.5834V60.078C37.5834 59.262 37.3554 58.644 36.8994 58.224C36.4434 57.792 35.7774 57.576 34.9014 57.576C34.3014 57.576 33.7254 57.678 33.1734 57.882C32.6214 58.074 32.1474 58.344 31.7514 58.692L31.1754 57.738C31.6554 57.33 32.2314 57.018 32.9034 56.802C33.5754 56.574 34.2834 56.46 35.0274 56.46ZM34.5774 65.082C35.2974 65.082 35.9154 64.92 36.4314 64.596C36.9474 64.26 37.3314 63.78 37.5834 63.156V61.608H34.6134C32.9934 61.608 32.1834 62.172 32.1834 63.3C32.1834 63.852 32.3934 64.29 32.8134 64.614C33.2334 64.926 33.8214 65.082 34.5774 65.082Z" fill="white"/>
<path d="M46.2236 66.09C45.2876 66.09 44.4476 65.886 43.7036 65.478C42.9716 65.07 42.3956 64.5 41.9756 63.768C41.5556 63.024 41.3456 62.19 41.3456 61.266C41.3456 60.342 41.5556 59.514 41.9756 58.782C42.3956 58.05 42.9716 57.48 43.7036 57.072C44.4476 56.664 45.2876 56.46 46.2236 56.46C47.0396 56.46 47.7656 56.622 48.4016 56.946C49.0496 57.258 49.5596 57.72 49.9316 58.332L48.9776 58.98C48.6656 58.512 48.2696 58.164 47.7896 57.936C47.3096 57.696 46.7876 57.576 46.2236 57.576C45.5396 57.576 44.9216 57.732 44.3696 58.044C43.8296 58.344 43.4036 58.776 43.0916 59.34C42.7916 59.904 42.6416 60.546 42.6416 61.266C42.6416 61.998 42.7916 62.646 43.0916 63.21C43.4036 63.762 43.8296 64.194 44.3696 64.506C44.9216 64.806 45.5396 64.956 46.2236 64.956C46.7876 64.956 47.3096 64.842 47.7896 64.614C48.2696 64.386 48.6656 64.038 48.9776 63.57L49.9316 64.218C49.5596 64.83 49.0496 65.298 48.4016 65.622C47.7536 65.934 47.0276 66.09 46.2236 66.09Z" fill="white"/>
<path d="M65.6131 56.532V66H64.3351V57.666H58.3951V66H57.1171V56.532H65.6131Z" fill="white"/>
<path d="M73.152 66.09C72.24 66.09 71.418 65.886 70.686 65.478C69.954 65.058 69.378 64.482 68.958 63.75C68.538 63.018 68.328 62.19 68.328 61.266C68.328 60.342 68.538 59.514 68.958 58.782C69.378 58.05 69.954 57.48 70.686 57.072C71.418 56.664 72.24 56.46 73.152 56.46C74.064 56.46 74.886 56.664 75.618 57.072C76.35 57.48 76.92 58.05 77.328 58.782C77.748 59.514 77.958 60.342 77.958 61.266C77.958 62.19 77.748 63.018 77.328 63.75C76.92 64.482 76.35 65.058 75.618 65.478C74.886 65.886 74.064 66.09 73.152 66.09ZM73.152 64.956C73.824 64.956 74.424 64.806 74.952 64.506C75.492 64.194 75.912 63.756 76.212 63.192C76.512 62.628 76.662 61.986 76.662 61.266C76.662 60.546 76.512 59.904 76.212 59.34C75.912 58.776 75.492 58.344 74.952 58.044C74.424 57.732 73.824 57.576 73.152 57.576C72.48 57.576 71.874 57.732 71.334 58.044C70.806 58.344 70.386 58.776 70.074 59.34C69.774 59.904 69.624 60.546 69.624 61.266C69.624 61.986 69.774 62.628 70.074 63.192C70.386 63.756 70.806 64.194 71.334 64.506C71.874 64.806 72.48 64.956 73.152 64.956Z" fill="white"/>
<path d="M91.4303 61.104C92.7143 61.404 93.3563 62.178 93.3563 63.426C93.3563 64.254 93.0503 64.89 92.4383 65.334C91.8263 65.778 90.9143 66 89.7023 66H85.4003V56.532H89.5763C90.6563 56.532 91.5023 56.742 92.1143 57.162C92.7263 57.582 93.0323 58.182 93.0323 58.962C93.0323 59.478 92.8883 59.922 92.6003 60.294C92.3243 60.654 91.9343 60.924 91.4303 61.104ZM86.6423 60.744H89.4863C90.2183 60.744 90.7763 60.606 91.1603 60.33C91.5563 60.054 91.7543 59.652 91.7543 59.124C91.7543 58.596 91.5563 58.2 91.1603 57.936C90.7763 57.672 90.2183 57.54 89.4863 57.54H86.6423V60.744ZM89.6483 64.992C90.4643 64.992 91.0763 64.86 91.4843 64.596C91.8923 64.332 92.0963 63.918 92.0963 63.354C92.0963 62.79 91.9103 62.376 91.5383 62.112C91.1663 61.836 90.5783 61.698 89.7743 61.698H86.6423V64.992H89.6483Z" fill="white"/>
<path d="M99.6094 56.46C100.845 56.46 101.793 56.772 102.453 57.396C103.113 58.008 103.443 58.92 103.443 60.132V66H102.219V64.524C101.931 65.016 101.505 65.4 100.941 65.676C100.389 65.952 99.7294 66.09 98.9614 66.09C97.9054 66.09 97.0654 65.838 96.4414 65.334C95.8174 64.83 95.5054 64.164 95.5054 63.336C95.5054 62.532 95.7934 61.884 96.3694 61.392C96.9574 60.9 97.8874 60.654 99.1594 60.654H102.165V60.078C102.165 59.262 101.937 58.644 101.481 58.224C101.025 57.792 100.359 57.576 99.4834 57.576C98.8834 57.576 98.3074 57.678 97.7554 57.882C97.2034 58.074 96.7295 58.344 96.3335 58.692L95.7574 57.738C96.2374 57.33 96.8135 57.018 97.4855 56.802C98.1575 56.574 98.8654 56.46 99.6094 56.46ZM99.1594 65.082C99.8794 65.082 100.497 64.92 101.013 64.596C101.529 64.26 101.913 63.78 102.165 63.156V61.608H99.1954C97.5754 61.608 96.7654 62.172 96.7654 63.3C96.7654 63.852 96.9754 64.29 97.3954 64.614C97.8154 64.926 98.4034 65.082 99.1594 65.082Z" fill="white"/>
<path d="M119.914 56.532V66H106.846V56.532H108.124V64.884H112.768V56.532H114.046V64.884H118.636V56.532H119.914Z" fill="white"/>
<path d="M127.468 66.09C126.556 66.09 125.734 65.886 125.002 65.478C124.27 65.058 123.694 64.482 123.274 63.75C122.854 63.018 122.644 62.19 122.644 61.266C122.644 60.342 122.854 59.514 123.274 58.782C123.694 58.05 124.27 57.48 125.002 57.072C125.734 56.664 126.556 56.46 127.468 56.46C128.38 56.46 129.202 56.664 129.934 57.072C130.666 57.48 131.236 58.05 131.644 58.782C132.064 59.514 132.274 60.342 132.274 61.266C132.274 62.19 132.064 63.018 131.644 63.75C131.236 64.482 130.666 65.058 129.934 65.478C129.202 65.886 128.38 66.09 127.468 66.09ZM127.468 64.956C128.14 64.956 128.74 64.806 129.268 64.506C129.808 64.194 130.228 63.756 130.528 63.192C130.828 62.628 130.978 61.986 130.978 61.266C130.978 60.546 130.828 59.904 130.528 59.34C130.228 58.776 129.808 58.344 129.268 58.044C128.74 57.732 128.14 57.576 127.468 57.576C126.796 57.576 126.19 57.732 125.65 58.044C125.122 58.344 124.702 58.776 124.39 59.34C124.09 59.904 123.94 60.546 123.94 61.266C123.94 61.986 124.09 62.628 124.39 63.192C124.702 63.756 125.122 64.194 125.65 64.506C126.19 64.806 126.796 64.956 127.468 64.956Z" fill="white"/>
<path d="M145.59 56.532V66H144.42V58.512L140.586 64.848H140.01L136.176 58.494V66H135.006V56.532H136.302L140.316 63.354L144.402 56.532H145.59Z" fill="white"/>
<path d="M157.272 56.532L152.538 67.134C152.154 68.022 151.71 68.652 151.206 69.024C150.702 69.396 150.096 69.582 149.388 69.582C148.932 69.582 148.506 69.51 148.11 69.366C147.714 69.222 147.372 69.006 147.084 68.718L147.678 67.764C148.158 68.244 148.734 68.484 149.406 68.484C149.838 68.484 150.204 68.364 150.504 68.124C150.816 67.884 151.104 67.476 151.368 66.9L151.782 65.982L147.552 56.532H148.884L152.448 64.578L156.012 56.532H157.272Z" fill="white"/>
<path d="M172.47 56.532V66H171.192V57.666H165.252V66H163.974V56.532H172.47Z" fill="white"/>
<path d="M176.103 56.532H177.381V64.056L183.699 56.532H184.833V66H183.555V58.476L177.255 66H176.103V56.532Z" fill="white"/>
<path d="M195.156 57.666H191.574V66H190.296V57.666H186.714V56.532H195.156V57.666Z" fill="white"/>
<path d="M200.262 56.46C201.498 56.46 202.446 56.772 203.106 57.396C203.766 58.008 204.096 58.92 204.096 60.132V66H202.872V64.524C202.584 65.016 202.158 65.4 201.594 65.676C201.042 65.952 200.382 66.09 199.614 66.09C198.558 66.09 197.718 65.838 197.094 65.334C196.47 64.83 196.158 64.164 196.158 63.336C196.158 62.532 196.446 61.884 197.022 61.392C197.61 60.9 198.54 60.654 199.812 60.654H202.818V60.078C202.818 59.262 202.59 58.644 202.134 58.224C201.678 57.792 201.012 57.576 200.136 57.576C199.536 57.576 198.96 57.678 198.408 57.882C197.856 58.074 197.382 58.344 196.986 58.692L196.41 57.738C196.89 57.33 197.466 57.018 198.138 56.802C198.81 56.574 199.518 56.46 200.262 56.46ZM199.812 65.082C200.532 65.082 201.15 64.92 201.666 64.596C202.182 64.26 202.566 63.78 202.818 63.156V61.608H199.848C198.228 61.608 197.418 62.172 197.418 63.3C197.418 63.852 197.628 64.29 198.048 64.614C198.468 64.926 199.056 65.082 199.812 65.082Z" fill="white"/>
<path d="M207.498 56.532H208.776V60.726H214.734V56.532H216.012V66H214.734V61.824H208.776V66H207.498V56.532Z" fill="white"/>
<path d="M219.644 56.532H220.922V60.726H226.88V56.532H228.158V66H226.88V61.824H220.922V66H219.644V56.532Z" fill="white"/>
<path d="M239.927 56.46C240.815 56.46 241.613 56.664 242.321 57.072C243.041 57.48 243.605 58.05 244.013 58.782C244.421 59.514 244.625 60.342 244.625 61.266C244.625 62.19 244.421 63.018 244.013 63.75C243.605 64.482 243.041 65.058 242.321 65.478C241.613 65.886 240.815 66.09 239.927 66.09C239.087 66.09 238.325 65.91 237.641 65.55C236.957 65.178 236.399 64.668 235.967 64.02C235.547 63.372 235.301 62.628 235.229 61.788H233.069V66H231.791V56.532H233.069V60.618H235.247C235.343 59.802 235.601 59.082 236.021 58.458C236.453 57.822 237.005 57.33 237.677 56.982C238.349 56.634 239.099 56.46 239.927 56.46ZM239.927 64.974C240.575 64.974 241.157 64.818 241.673 64.506C242.201 64.194 242.615 63.756 242.915 63.192C243.215 62.628 243.365 61.986 243.365 61.266C243.365 60.546 243.215 59.904 242.915 59.34C242.615 58.776 242.201 58.344 241.673 58.044C241.157 57.732 240.575 57.576 239.927 57.576C239.279 57.576 238.691 57.732 238.163 58.044C237.647 58.344 237.239 58.776 236.939 59.34C236.639 59.904 236.489 60.546 236.489 61.266C236.489 61.986 236.639 62.628 236.939 63.192C237.239 63.756 237.647 64.194 238.163 64.506C238.691 64.818 239.279 64.974 239.927 64.974Z" fill="white"/>
<path d="M248.916 62.22C248.916 61.728 248.994 61.296 249.15 60.924C249.318 60.552 249.522 60.234 249.762 59.97C250.002 59.706 250.314 59.406 250.698 59.07C251.214 58.614 251.592 58.218 251.832 57.882C252.084 57.534 252.21 57.114 252.21 56.622C252.21 55.962 251.952 55.434 251.436 55.038C250.92 54.63 250.212 54.426 249.312 54.426C247.824 54.426 246.678 54.912 245.874 55.884L244.92 55.164C245.94 53.916 247.434 53.292 249.402 53.292C250.662 53.292 251.664 53.574 252.408 54.138C253.164 54.702 253.542 55.464 253.542 56.424C253.542 56.916 253.458 57.354 253.29 57.738C253.134 58.11 252.936 58.428 252.696 58.692C252.468 58.956 252.162 59.262 251.778 59.61C251.262 60.078 250.878 60.498 250.626 60.87C250.374 61.23 250.248 61.68 250.248 62.22H248.916ZM249.582 66.09C249.318 66.09 249.096 66 248.916 65.82C248.736 65.628 248.646 65.406 248.646 65.154C248.646 64.89 248.736 64.674 248.916 64.506C249.096 64.326 249.318 64.236 249.582 64.236C249.858 64.236 250.086 64.326 250.266 64.506C250.446 64.674 250.536 64.89 250.536 65.154C250.536 65.406 250.44 65.628 250.248 65.82C250.068 66 249.846 66.09 249.582 66.09Z" fill="white"/>
<path d="M256.807 58.422C256.543 58.422 256.315 58.326 256.123 58.134C255.943 57.942 255.853 57.708 255.853 57.432C255.853 57.156 255.943 56.928 256.123 56.748C256.315 56.556 256.543 56.46 256.807 56.46C257.071 56.46 257.299 56.556 257.491 56.748C257.683 56.928 257.779 57.156 257.779 57.432C257.779 57.708 257.683 57.942 257.491 58.134C257.299 58.326 257.071 58.422 256.807 58.422ZM256.807 66.09C256.543 66.09 256.315 65.994 256.123 65.802C255.943 65.61 255.853 65.376 255.853 65.1C255.853 64.824 255.943 64.596 256.123 64.416C256.315 64.224 256.543 64.128 256.807 64.128C257.071 64.128 257.299 64.224 257.491 64.416C257.683 64.596 257.779 64.824 257.779 65.1C257.779 65.376 257.683 65.61 257.491 65.802C257.299 65.994 257.071 66.09 256.807 66.09Z" fill="white"/>
<path d="M259.433 69.492C260.141 68.28 260.663 66.984 260.999 65.604C261.335 64.212 261.503 62.7 261.503 61.068C261.503 59.436 261.335 57.93 260.999 56.55C260.663 55.158 260.141 53.856 259.433 52.644H260.657C261.329 53.724 261.845 54.99 262.205 56.442C262.577 57.882 262.763 59.424 262.763 61.068C262.763 62.712 262.583 64.254 262.223 65.694C261.863 67.134 261.341 68.4 260.657 69.492H259.433Z" fill="white"/>
</svg>
