<svg width="52" height="63" viewBox="0 0 52 63" fill="none" xmlns="http://www.w3.org/2000/svg">
<path d="M51.2459 19.4618C51.3367 25.7009 50.9436 46.2056 45.7055 54.0769C44.9166 55.2637 43.9454 54.9131 43.9454 54.9131C43.9454 54.9131 42.9056 54.9966 41.9794 53.1879C41.0532 51.3793 38.1973 44.8651 37.3913 43.2611C37.1441 42.7694 33.8793 37.6118 31.2638 43.9443C28.6483 50.2768 30.2845 57.561 29.3914 59.8587C28.4982 62.1565 26.7723 62.2614 25.7497 61.6989C15.2293 56.1309 7.5174 39.8418 3.75152 30.7501C0.511738 23.2646 -1.22253 11.9002 5.36047 6.61825C6.75268 5.50201 13.605 -0.76168 23.8759 3.86842C34.1468 8.49851 37.2653 1.24252 40.1365 0.977538C43.0078 0.712552 51.0861 8.19485 51.2459 19.4618Z" stroke="#4B99F1" stroke-opacity="0.3" stroke-miterlimit="10"/>
</svg>
