<svg width="52" height="62" viewBox="0 0 52 62" fill="none" xmlns="http://www.w3.org/2000/svg">
<path d="M0.5819 19.0414C0.458067 25.1843 0.744077 45.3651 5.93945 53.1744C6.72127 54.3504 7.69955 54.0177 7.69955 54.0177C7.69955 54.0177 8.73803 54.1115 9.67356 52.3421C10.6091 50.5727 13.5012 44.1968 14.3087 42.6246C14.5571 42.1448 17.8486 37.1051 20.4289 43.3674C23.0092 49.6298 21.3436 56.7811 22.2193 59.0514C23.0949 61.3218 24.8288 61.4466 25.8533 60.905C36.3898 55.5411 44.179 39.5984 47.9914 30.6941C51.2607 23.363 53.0579 12.1991 46.5013 6.92423C45.1156 5.80999 38.3004 -0.432661 28.0079 4.00775C17.7153 8.44816 14.6426 1.27051 11.7722 0.976841C8.90189 0.683174 0.803911 7.95701 0.5819 19.0414Z" stroke="#E1E5EB" stroke-miterlimit="10"/>
</svg>
